<?xml version="1.0" encoding="UTF-8" standalone="no"?>
<svg
   xmlns:dc="http://purl.org/dc/elements/1.1/"
   xmlns:cc="http://creativecommons.org/ns#"
   xmlns:rdf="http://www.w3.org/1999/02/22-rdf-syntax-ns#"
   xmlns:svg="http://www.w3.org/2000/svg"
   xmlns="http://www.w3.org/2000/svg"
   xmlns:sodipodi="http://sodipodi.sourceforge.net/DTD/sodipodi-0.dtd"
   xmlns:inkscape="http://www.inkscape.org/namespaces/inkscape"
   id="Layer_1"
   data-name="Layer 1"
   width="11.416"
   height="22"
   viewBox="0 0 11.416 22"
   version="1.1"
   sodipodi:docname="facebook-white.svg"
   inkscape:version="0.92.1 r15371">
  <metadata
     id="metadata13">
    <rdf:RDF>
      <cc:Work
         rdf:about="">
        <dc:format>image/svg+xml</dc:format>
        <dc:type
           rdf:resource="http://purl.org/dc/dcmitype/StillImage" />
        <dc:title>facebook</dc:title>
      </cc:Work>
    </rdf:RDF>
  </metadata>
  <defs
     id="defs11" />
  <sodipodi:namedview
     pagecolor="#ffffff"
     bordercolor="#666666"
     borderopacity="1"
     objecttolerance="10"
     gridtolerance="10"
     guidetolerance="10"
     inkscape:pageopacity="0"
     inkscape:pageshadow="2"
     inkscape:window-width="866"
     inkscape:window-height="480"
     id="namedview9"
     showgrid="false"
     inkscape:zoom="10.727273"
     inkscape:cx="5.7080002"
     inkscape:cy="11"
     inkscape:window-x="0"
     inkscape:window-y="0"
     inkscape:window-maximized="0"
     inkscape:current-layer="Layer_1" />
  <title
     id="title2">facebook</title>
  <path
     style="fill:#ffffff;fill-opacity:1;stroke-width:0.09322034"
     d="m 3.3650624,21.956497 c -0.034181,-0.03418 -0.062147,-2.299435 -0.062147,-5.033898 V 11.950847 H 1.6249493 -0.05301677 V 9.9932203 8.0355932 H 1.674444 3.4019049 L 3.3927356,6.0080508 C 3.3826118,3.7694617 3.4366771,3.4414203 3.9876542,2.3983787 4.549398,1.3349548 5.6548741,0.48459521 6.8957722,0.16138232 7.4745525,0.01062918 9.7359578,-0.03687043 10.840088,0.07853407 l 0.572997,0.05989 V 1.8963306 3.6542373 h -1.383643 c -1.2623238,0 -1.4190337,0.018715 -1.7872716,0.2134439 C 7.5541033,4.2315398 7.4563791,4.5365157 7.4219066,6.4275424 l -0.029314,1.6080508 h 1.9577749 1.9577755 l -0.04699,0.3029661 c -0.02584,0.1666314 -0.140084,1.0370763 -0.25387,1.9343217 l -0.206883,1.631356 -1.6978972,0.02541 -1.6978956,0.02541 v 5.031795 5.031795 H 5.4159098 c -1.0937854,0 -2.0166667,-0.02797 -2.0508474,-0.06215 z"
     id="path4490"
     inkscape:connector-curvature="0" />
</svg>
