<?xml version="1.0" encoding="UTF-8" standalone="no"?>
<svg
   xmlns:dc="http://purl.org/dc/elements/1.1/"
   xmlns:cc="http://creativecommons.org/ns#"
   xmlns:rdf="http://www.w3.org/1999/02/22-rdf-syntax-ns#"
   xmlns:svg="http://www.w3.org/2000/svg"
   xmlns="http://www.w3.org/2000/svg"
   xmlns:sodipodi="http://sodipodi.sourceforge.net/DTD/sodipodi-0.dtd"
   xmlns:inkscape="http://www.inkscape.org/namespaces/inkscape"
   id="Layer_1"
   data-name="Layer 1"
   width="20.923"
   height="17"
   viewBox="0 0 20.923 17"
   version="1.1"
   sodipodi:docname="github-white.svg"
   inkscape:version="0.92.1 r15371">
  <metadata
     id="metadata13">
    <rdf:RDF>
      <cc:Work
         rdf:about="">
        <dc:format>image/svg+xml</dc:format>
        <dc:type
           rdf:resource="http://purl.org/dc/dcmitype/StillImage" />
        <dc:title>github</dc:title>
      </cc:Work>
    </rdf:RDF>
  </metadata>
  <defs
     id="defs11" />
  <sodipodi:namedview
     pagecolor="#ffffff"
     bordercolor="#666666"
     borderopacity="1"
     objecttolerance="10"
     gridtolerance="10"
     guidetolerance="10"
     inkscape:pageopacity="0"
     inkscape:pageshadow="2"
     inkscape:window-width="1366"
     inkscape:window-height="745"
     id="namedview9"
     showgrid="false"
     inkscape:zoom="13.573579"
     inkscape:cx="10.4615"
     inkscape:cy="8.5"
     inkscape:window-x="-8"
     inkscape:window-y="-8"
     inkscape:window-maximized="1"
     inkscape:current-layer="Layer_1" />
  <title
     id="title2">github</title>
  <path
     style="fill:#ffffff;fill-opacity:1;stroke-width:0.07367253"
     d="M 7.9242681,16.913191 C 5.5040486,16.661242 3.870127,16.117479 2.5587906,15.127583 1.4140587,14.263452 0.70686625,13.100711 0.26190492,11.351127 0.00506058,10.341217 -0.06884712,8.2345564 0.12240759,7.3749032 0.34358279,6.3807629 0.80789628,5.4139392 1.4148177,4.6837626 1.6503097,4.4004464 1.680191,4.3254528 1.6203026,4.1680549 1.4857092,3.8143184 1.3408528,2.8987851 1.3424346,2.4118513 1.3442725,1.8461039 1.562824,0.78055067 1.7757559,0.29918274 1.9458656,-0.08537831 2.0106394,-0.09798835 2.9210953,0.07621062 3.6188585,0.20971478 4.6905003,0.67168042 5.6305416,1.2442045 l 0.7165835,0.436429 1.014721,-0.1744856 C 8.2728409,1.3494985 8.5949645,1.3318645 10.513071,1.3336416 c 1.748333,0.00162 2.263663,0.026197 2.836393,0.1352719 1.295647,0.2467535 1.174524,0.2584571 1.856871,-0.1794212 0.938917,-0.60252564 2.026846,-1.06910233 2.830087,-1.21372902 0.955996,-0.1721311 1.002372,-0.15286156 1.202113,0.49948369 0.235618,0.76951743 0.228865,0.73888843 0.292099,1.32511313 0.06821,0.6323845 -0.01919,1.6432592 -0.185482,2.1453234 l -0.118082,0.3565 0.221731,0.2328802 c 0.358455,0.3764772 0.804074,1.1251289 1.053178,1.7693624 0.359362,0.9293848 0.454449,1.5991131 0.409448,2.88387 -0.09256,2.6425349 -0.945983,4.6050829 -2.539857,5.8407049 -0.598974,0.464343 -1.900462,1.09807 -2.677788,1.303882 -1.542164,0.408316 -2.353082,0.49525 -4.849185,0.519855 -1.2763763,0.01258 -2.5905242,-0.0052 -2.9203289,-0.03955 z m 6.3412409,-1.426638 c 1.306144,-0.215483 2.470729,-0.722316 3.005189,-1.307872 0.321262,-0.351975 0.686975,-1.089975 0.809597,-1.633749 0.04755,-0.210874 0.08675,-0.73151 0.08711,-1.156969 5.16e-4,-0.635028 -0.02972,-0.850379 -0.16892,-1.202506 C 17.632048,9.2585148 16.631533,8.2749613 15.796597,8.0208979 15.299496,7.8696349 14.223582,7.8529238 11.594908,7.9556358 10.344759,8.0044837 9.3780549,7.9962191 8.043513,7.9252732 5.2616119,7.7773837 4.6568741,7.9093415 3.6912502,8.874966 c -0.891907,0.8919069 -1.203882,1.836859 -1.0385659,3.145749 0.2627978,2.080699 1.4106114,3.10043 3.8829994,3.449701 1.2377988,0.174862 1.2164751,0.174075 4.1984053,0.15489 2.179195,-0.01402 2.961732,-0.04477 3.53142,-0.138753 z"
     id="path8428"
     inkscape:connector-curvature="0" />
  <path
     style="fill:#ffffff;fill-opacity:1;stroke-width:0.07367253"
     d="m 13.882066,12.934968 c -0.132527,-0.0808 -0.336917,-0.298224 -0.4542,-0.483159 -0.55824,-0.880254 -0.466073,-2.154074 0.211714,-2.9260306 0.586712,-0.668228 1.418004,-0.4146148 1.850512,0.5645606 0.686827,1.55494 -0.443555,3.554609 -1.608026,2.844629 z"
     id="path8430"
     inkscape:connector-curvature="0" />
  <path
     style="fill:#ffffff;fill-opacity:1;stroke-width:0.07367253"
     d="M 5.9034145,12.811185 C 5.4496194,12.401209 5.2982069,12.048317 5.261154,11.314291 5.224389,10.585975 5.306934,10.216645 5.6079066,9.7628086 c 0.5301201,-0.7993672 1.3235746,-0.7993672 1.8536947,0 0.3009731,0.4538364 0.3835173,0.8231664 0.3467527,1.5514824 -0.037053,0.734026 -0.1884654,1.086918 -0.6422606,1.496894 -0.4267908,0.38558 -0.8358881,0.38558 -1.2626789,0 z"
     id="path8432"
     inkscape:connector-curvature="0" />
</svg>
