<?xml version="1.0" encoding="UTF-8" standalone="no"?>
<svg
   xmlns:dc="http://purl.org/dc/elements/1.1/"
   xmlns:cc="http://creativecommons.org/ns#"
   xmlns:rdf="http://www.w3.org/1999/02/22-rdf-syntax-ns#"
   xmlns:svg="http://www.w3.org/2000/svg"
   xmlns="http://www.w3.org/2000/svg"
   xmlns:sodipodi="http://sodipodi.sourceforge.net/DTD/sodipodi-0.dtd"
   xmlns:inkscape="http://www.inkscape.org/namespaces/inkscape"
   id="Layer_1"
   data-name="Layer 1"
   width="22.388"
   height="18.159"
   viewBox="0 0 22.388 18.159"
   version="1.1"
   sodipodi:docname="twitter.svg">
  <metadata
     id="metadata13">
    <rdf:RDF>
      <cc:Work
         rdf:about="">
        <dc:format>image/svg+xml</dc:format>
        <dc:type
           rdf:resource="http://purl.org/dc/dcmitype/StillImage" />
        <dc:title>twitter</dc:title>
      </cc:Work>
    </rdf:RDF>
  </metadata>
  <defs
     id="defs11" />
  <sodipodi:namedview
     pagecolor="#ffffff"
     bordercolor="#666666"
     borderopacity="1"
     objecttolerance="10"
     gridtolerance="10"
     guidetolerance="10"
     inkscape:pageopacity="0"
     inkscape:pageshadow="2"
     inkscape:window-width="1366"
     inkscape:window-height="745"
     id="namedview9"
     showgrid="false"
     inkscape:zoom="12.685367"
     inkscape:cx="11.194"
     inkscape:cy="9.0795002"
     inkscape:window-x="-8"
     inkscape:window-y="-8"
     inkscape:window-maximized="1"
     inkscape:current-layer="Layer_1" />
  <title
     id="title2">twitter</title>
  <path
     style="fill:#ffffff;fill-opacity:1;stroke-width:0.07883099"
     d="M 5.0553101,18.04532 C 3.3166759,17.761144 1.5913857,17.134443 0.29167465,16.314961 l -0.31532395,-0.198816 1.1146333,-0.0025 c 1.2912099,-0.0028 2.0893425,-0.132596 3.1519645,-0.512392 0.7804148,-0.278931 1.4723168,-0.638311 2.1184602,-1.100345 L 6.7553115,14.219281 H 6.4765096 c -1.4073204,0 -3.2229495,-1.313906 -3.8558116,-2.790314 l -0.1555683,-0.362926 0.7658007,-0.0093 c 0.4211904,-0.0051 0.8722225,-0.03221 1.0022936,-0.06017 C 4.4690947,10.945861 4.4687836,10.945461 4.1149776,10.84063 2.67557,10.41414 1.3554374,9.0009798 1.004105,7.5105181 0.93872784,7.233168 0.88471316,6.8694226 0.88407226,6.702195 0.88307568,6.4421414 0.90286927,6.4068181 1.0208613,6.4580843 1.4396499,6.6400429 2.0190769,6.8120412 2.42854,6.8759426 l 0.4645572,0.0725 L 2.5330839,6.6226042 C 1.9944266,6.1350807 1.6316026,5.6469558 1.3215231,4.992632 0.73598534,3.7570413 0.73510235,2.5034855 1.3188695,1.2252393 L 1.5109087,0.80474063 2.1596028,1.4900413 c 1.4609963,1.5434416 3.187182,2.6840155 5.0550075,3.3400863 1.171494,0.4114853 1.7946514,0.5459327 3.4827547,0.7514109 l 0.236493,0.028786 0.0045,-1.0363215 c 0.004,-0.9293734 0.02612,-1.0914796 0.214145,-1.5708009 0.547904,-1.3967101 1.689178,-2.45247743 3.092278,-2.86059912 0.578713,-0.16833092 1.72377,-0.18924805 2.325515,-0.0424809 0.641635,0.15649652 1.363851,0.52118007 1.875673,0.94712262 l 0.453216,0.3771708 0.62896,-0.1748766 c 0.739591,-0.2056364 1.361136,-0.44645043 1.843121,-0.71410656 0.190861,-0.10598893 0.358728,-0.18099817 0.373039,-0.16668721 0.01431,0.0143109 -0.09232,0.27201486 -0.236957,0.57267532 -0.28126,0.58466105 -0.837277,1.25712085 -1.350209,1.63297705 l -0.315357,0.2310807 0.426212,-0.056857 c 0.481887,-0.064284 1.237873,-0.2706657 1.692143,-0.4619502 0.167884,-0.070692 0.338011,-0.1285319 0.378059,-0.1285319 0.191047,0 -1.159879,1.5103472 -1.885474,2.1079765 L 20.11769,4.542061 20.11619,5.222336 c -0.0041,1.7970916 -0.457452,3.7139413 -1.30226,5.505768 -1.496408,3.173858 -4.132493,5.618881 -7.2405,6.715711 -1.337119,0.471875 -2.4229947,0.646898 -4.2263214,0.681204 -1.1439085,0.02176 -1.8134427,-0.0015 -2.2917379,-0.0797 z"
     id="path4490"
     inkscape:connector-curvature="0" />
</svg>
